<svg height="464pt" viewBox="-76 0 464 464" width="464pt" xmlns="http://www.w3.org/2000/svg"><path d="m312 320v16c0 17.679688-14.320312 32-32 32h-176v-48zm0 0" fill="#627da2"/><path d="m40 48h272v272h-272zm0 0" fill="#afc2db"/><path d="m312 32v16h-272v-16c0-17.679688 14.320312-32 32-32h208c17.679688 0 32 14.320312 32 32zm0 0" fill="#627da2"/><path d="m104 368h128v16l-40 40v40h-184v-152l86.078125-86.078125c6.320313-6.320313 14.960937-9.921875 24-9.921875 9.363281 0 17.84375 3.839844 24 9.921875 6.082031 6.15625 9.921875 14.636719 9.921875 24 0 9.039063-3.601562 17.679687-9.921875 24l-38.078125 38.078125zm0 0" fill="#e9e9f1"/><g fill="#425e82"><path d="m256 112h-16v-16h-16v-16h32zm0 0"/><path d="m256 232h-32v-16h16v-16h16zm0 0"/><path d="m104 112h-16v-32h40v16h-24zm0 0"/><path d="m184 80h24v16h-24zm0 0"/><path d="m144 80h16v32h-16zm0 0"/><path d="m256 152h-48v-40h16v24h32zm0 0"/><path d="m216 200h-16v-32h56v16h-40zm0 0"/><path d="m208 232h-40v-24h16v8h24zm0 0"/><path d="m176 112h16v48h-16zm0 0"/><path d="m184 192h-40v-32h16v16h24zm0 0"/><path d="m160 144h-40v-32h16v16h24zm0 0"/><path d="m104 160h-16v-32h24v16h-8zm0 0"/><path d="m120 160h16v16h-16zm0 0"/><path d="m128 200h-40v-24h16v8h24zm0 0"/><path d="m232 299.3125-29.65625-29.65625 11.3125-11.3125 18.34375 18.34375 42.34375-42.34375 11.3125 11.3125zm0 0"/></g><path d="m0 256h16v16h-16zm0 0" fill="#cdcdd3"/><path d="m0 224h16v16h-16zm0 0" fill="#cdcdd3"/><path d="m0 192h16v16h-16zm0 0" fill="#cdcdd3"/><path d="m66.339844 394.339844 32.003906-32 11.3125 11.3125-32 32zm0 0" fill="#cdcdd3"/></svg>