<svg height="472pt" viewBox="-3 0 471 472" width="472pt" xmlns="http://www.w3.org/2000/svg"><path d="m224.5 320h16v152h-16zm0 0" fill="#425e82"/><path d="m336.5 472h-16v-21.871094l-64-112v-18.128906h16v13.871094l64 112zm0 0" fill="#425e82"/><path d="m144.5 472h-16v-26.128906l64-112v-13.871094h16v18.128906l-64 112zm0 0" fill="#425e82"/><path d="m464.5 0v304c0 17.679688-14.320312 32-32 32h-432v-336zm0 0" fill="#627da2"/><path d="m424.5 88.878906-36 32.800782 8.480469 46.320312-44.480469-21.839844-44.480469 21.839844 8.480469-46.320312-36-32.800782 49.761719-6.71875 22.238281-42.160156 22.238281 42.160156zm0 0" fill="#ffba4f"/><path d="m46.15625 245.65625-11.3125-11.3125 77.65625-77.65625 64 64 98.34375-98.34375 11.3125 11.3125-109.65625 109.65625-64-64zm0 0" fill="#ef6461"/><g fill="#c0daee"><path d="m48.5 264h16v40h-16zm0 0"/><path d="m80.5 232h16v72h-16zm0 0"/><path d="m112.5 216h16v88h-16zm0 0"/><path d="m144.5 256h16v48h-16zm0 0"/><path d="m176.5 264h16v40h-16zm0 0"/><path d="m208.5 232h16v72h-16zm0 0"/><path d="m240.5 208h16v96h-16zm0 0"/><path d="m272.5 176h16v128h-16zm0 0"/><path d="m304.5 192h16v112h-16zm0 0"/><path d="m336.5 216h16v88h-16zm0 0"/><path d="m368.5 200h16v104h-16zm0 0"/><path d="m400.5 248h16v56h-16zm0 0"/></g><path d="m40.5 40h72v16h-72zm0 0" fill="#425e82"/><path d="m128.5 40h48v16h-48zm0 0" fill="#425e82"/><path d="m40.5 72h24v16h-24zm0 0" fill="#425e82"/><path d="m80.5 72h96v16h-96zm0 0" fill="#425e82"/><path d="m40.5 104h40v16h-40zm0 0" fill="#425e82"/><path d="m96.5 104h16v16h-16zm0 0" fill="#425e82"/><path d="m128.5 104h16v16h-16zm0 0" fill="#425e82"/><path d="m160.5 104h16v16h-16zm0 0" fill="#425e82"/><path d="m396.980469 168-8.480469-46.320312 36-32.800782-49.761719-6.71875-22.238281-42.160156v106.160156zm0 0" fill="#f9a63a"/></svg>