<svg height="464pt" viewBox="0 0 464 464" width="464pt" xmlns="http://www.w3.org/2000/svg"><path d="m393.359375 262.640625 30.640625-30.640625v-100c0-11.039062 8.960938-20 20-20 5.519531 0 10.558594 2.238281 14.160156 5.839844 3.601563 3.601562 5.839844 8.640625 5.839844 14.160156v176l-72 92v64h-72v-128zm0 0" fill="#e9e9f1"/><path d="m303.519531 198.160156 40.480469 57.839844h-48l-24 48-33.441406-80.238281c24.640625-1.363281 47.121094-10.800781 64.960937-25.601563zm0 0" fill="#ef6461"/><path d="m232 0c61.839844 0 112 50.160156 112 112 0 34.640625-15.761719 65.601562-40.480469 86.160156-17.839843 14.800782-40.320312 24.238282-64.960937 25.601563-2.160156.160156-4.320313.238281-6.558594.238281s-4.398438-.078125-6.558594-.238281c-24.640625-1.363281-47.121094-10.800781-64.960937-25.601563-24.71875-20.558594-40.480469-51.519531-40.480469-86.160156 0-61.839844 50.160156-112 112-112zm0 0" fill="#627da2"/><path d="m296 82.800781-32 28.640625 7.519531 40.558594-39.519531-19.121094-39.519531 19.121094 7.519531-40.558594-32-28.640625 44.238281-5.921875 19.761719-36.878906 19.761719 36.878906zm0 0" fill="#ffba4f"/><path d="m225.441406 223.761719-33.441406 80.238281-24-48h-48l40.480469-57.839844c17.839843 14.800782 40.320312 24.238282 64.960937 25.601563zm0 0" fill="#ef6461"/><path d="m317.28125 217.824219-13.761719-19.664063c-17.839843 14.800782-40.320312 24.238282-64.960937 25.601563l9.648437 23.148437c25.992188-3.046875 49.695313-13.476562 69.074219-29.085937zm0 0" fill="#e65855"/><path d="m215.792969 246.910156 9.648437-23.148437c-24.640625-1.363281-47.121094-10.800781-64.960937-25.601563l-13.761719 19.664063c19.378906 15.609375 43.082031 26.039062 69.074219 29.085937zm0 0" fill="#e65855"/><path d="m70.640625 262.640625 73.359375 73.359375v128h-72v-64l-72-92v-176c0-5.519531 2.238281-10.558594 5.839844-14.160156 3.601562-3.601563 8.640625-5.839844 14.160156-5.839844 11.039062 0 20 8.960938 20 20v100zm0 0" fill="#e9e9f1"/><g fill="#425e82"><path d="m224 176h16v16h-16zm0 0"/><path d="m256 176h16v16h-16zm0 0"/><path d="m192 176h16v16h-16zm0 0"/></g><path d="m381.65625 349.65625-11.3125-11.3125 49.375-49.375c2.722656-2.722656 4.28125-6.488281 4.28125-10.34375 0-8.066406-6.558594-14.625-14.625-14.625v-16c16.882812 0 30.625 13.742188 30.625 30.625 0 8.175781-3.183594 15.871094-8.96875 21.65625zm0 0" fill="#cdcdd3"/><path d="m82.34375 349.65625-49.375-49.375c-5.785156-5.785156-8.96875-13.472656-8.96875-21.65625 0-16.882812 13.742188-30.625 30.625-30.625v16c-8.066406 0-14.625 6.558594-14.625 14.625 0 3.847656 1.558594 7.621094 4.28125 10.34375l49.375 49.375zm0 0" fill="#cdcdd3"/><path d="m271.519531 152-7.519531-40.558594 32-28.640625-44.238281-5.921875-19.761719-36.878906v92.878906zm0 0" fill="#f9a63a"/></svg>